HIERARCHY
ROOT Hips
{
	OFFSET -3.958830 18.904000 13.208200
	CHANNELS 6 Xposition Yposition Zposition Zrotation Yrotation Xrotation 
	JOINT LHipJoint
	{
		OFFSET 0.000000 0.000000 0.000000
		CHANNELS 3 Zrotation Yrotation Xrotation
		JOINT LeftUpLeg
		{
			OFFSET 1.800000 -1.400000 0.085000
			CHANNELS 3 Zrotation Yrotation Xrotation
			JOINT LeftLeg
			{
				OFFSET 2.215000 -6.000000 0.000000
				CHANNELS 3 Zrotation Yrotation Xrotation
				JOINT LeftFoot
				{
					OFFSET 2.500000 -6.900000 0.000000
					CHANNELS 3 Zrotation Yrotation Xrotation
					JOINT LeftToeBase
					{
						OFFSET 0.200000 -0.500000 1.950000
						CHANNELS 3 Zrotation Yrotation Xrotation
						End Site
						{
							OFFSET 0.000000 0.000000 0.000000
						}
					}
				}
			}
		}
	}
	JOINT RHipJoint
	{
		OFFSET 0.000000 0.000000 0.000000
		CHANNELS 3 Zrotation Yrotation Xrotation
		JOINT RightUpLeg
		{
			OFFSET -1.800000 -1.400000 0.085000
			CHANNELS 3 Zrotation Yrotation Xrotation
			JOINT RightLeg
			{
				OFFSET -2.215000 -6.000000 0.000000
				CHANNELS 3 Zrotation Yrotation Xrotation
				JOINT RightFoot
				{
					OFFSET -2.500000 -6.900000 0.000000
					CHANNELS 3 Zrotation Yrotation Xrotation
					JOINT RightToeBase
					{
						OFFSET -0.200000 -0.500000 1.950000
						CHANNELS 3 Zrotation Yrotation Xrotation
						End Site
						{
							OFFSET 0.000000 0.000000 0.000000
						}
					}
				}
			}
		}
	}
	JOINT LowerBack
	{
		OFFSET 0.000000 0.000000 0.000000
		CHANNELS 3 Zrotation Yrotation Xrotation
		JOINT Spine
		{
			OFFSET -0.087000 1.940000 -0.288900
			CHANNELS 3 Zrotation Yrotation Xrotation
			JOINT Spine1
			{
				OFFSET 0.000000 1.950000 0.060000
				CHANNELS 3 Zrotation Yrotation Xrotation
				JOINT Neck
				{
					OFFSET 0.000000 0.000000 0.000000
					CHANNELS 3 Zrotation Yrotation Xrotation
					JOINT Neck1
					{
						OFFSET 0.000000 1.600000 0.340000
						CHANNELS 3 Zrotation Yrotation Xrotation
						JOINT Head
						{
							OFFSET 0.000000 1.667000 -0.240000
							CHANNELS 3 Zrotation Yrotation Xrotation
							End Site
							{
								OFFSET 0.000000 0.000000 0.000000
							}
						}
					}
				}
				JOINT LeftShoulder
				{
					OFFSET 0.000000 0.000000 0.000000
					CHANNELS 3 Zrotation Yrotation Xrotation
					JOINT LeftArm
					{
						OFFSET 2.700000 1.550000 -0.730000
						CHANNELS 3 Zrotation Yrotation Xrotation
						JOINT LeftForeArm
						{
							OFFSET 5.450000 0.000000 0.000000
							CHANNELS 3 Zrotation Yrotation Xrotation
							JOINT LeftHand
							{
								OFFSET 3.450000 0.000000 0.000000
								CHANNELS 3 Zrotation Yrotation Xrotation
								JOINT LeftHandIndex1
								{
									OFFSET 0.750000 0.000000 0.000000
									CHANNELS 3 Zrotation Yrotation Xrotation
									End Site
									{
										OFFSET 0.000000 0.000000 0.000000
									}
								}
							}
						}
					}
				}
				JOINT RightShoulder
				{
					OFFSET 0.000000 0.000000 0.000000
					CHANNELS 3 Zrotation Yrotation Xrotation
					JOINT RightArm
					{
						OFFSET -2.700000 1.550000 -0.730000
						CHANNELS 3 Zrotation Yrotation Xrotation
						JOINT RightForeArm
						{
							OFFSET -5.450000 0.000000 0.000000
							CHANNELS 3 Zrotation Yrotation Xrotation
							JOINT RightHand
							{
								OFFSET -3.450000 0.000000 0.000000
								CHANNELS 3 Zrotation Yrotation Xrotation
								JOINT RightHandIndex1
								{
									OFFSET -0.750000 0.000000 0.000000
									CHANNELS 3 Zrotation Yrotation Xrotation
									End Site
									{
										OFFSET 0.000000 0.000000 0.000000
									}
								}
							}
						}
					}
				}
			}
		}
	}
}
MOTION
Frames: 14
Frame Time: 0.016667
-0.504110 16.914680 -1.097990 -4.036544 27.419074 -12.257137 -15.365631 12.856693 3.827015 -6.371151 -7.047989 -20.820975 8.445588 5.067482 55.775439 0.805681 8.986245 1.444459 0.286750 0.230870 0.038320 18.055595 -10.860284 2.742291 -10.243996 1.765348 -28.006497 5.557270 -5.041722 19.670502 0.097618 -2.869199 3.278750 0.244740 0.204980 0.017950 -3.717749 -0.914445 -8.142487 6.886123 1.690910 23.362894 -6.785741 4.080977 10.535710 3.775180 1.374263 -9.316719 -1.461364 -5.261394 44.487822 7.432710 -10.260020 -6.584980 -16.114040 -18.559236 3.238300 -27.850552 -24.617529 -3.312478 37.627085 -72.275241 -26.306813 -3.328855 2.511536 0.148660 0.036730 -0.076590 0.160980 8.391310 19.729867 5.189771 8.120154 20.912649 0.641414 86.714679 71.126957 55.767811 2.890142 -0.918759 -0.103090 0.254950 -0.005380 0.014500 
-0.511140 16.932650 -1.122020 -4.392402 28.062682 -12.217930 -15.379455 12.864140 3.816489 -6.344139 -7.048258 -21.023783 8.916827 4.679570 55.221753 0.759924 8.833008 1.476844 0.312650 0.262610 0.069220 18.039199 -10.862445 2.743569 -10.688452 1.682778 -27.906423 5.761560 -5.054195 19.221852 0.081746 -2.849457 3.274860 0.258500 0.177690 0.025480 -3.694203 -0.905266 -8.128630 6.753802 1.524509 23.827120 -7.052919 4.057547 10.793948 4.262712 2.086164 -9.374902 0.003222 -5.867740 44.214932 7.448610 -9.951250 -7.702600 -15.800720 -18.556863 3.407630 -28.647128 -24.436923 -3.445103 43.792056 -76.550493 -33.237060 -3.268698 2.305859 0.165510 0.024490 -0.051030 0.154700 7.160019 19.128168 5.084249 6.676093 20.381232 0.410166 86.290875 71.888182 56.063057 2.899085 -0.862506 -0.092820 0.250030 -0.017850 0.003890 
-0.528850 16.976230 -1.166580 -5.279024 30.333867 -12.525960 -15.398310 12.870325 3.817562 -6.597563 -7.147328 -21.291398 10.404837 3.539930 54.093388 0.682407 8.487138 1.559526 0.369040 0.340040 0.120680 18.014434 -10.926003 2.687517 -11.820999 1.370218 -27.489296 5.564690 -5.128610 19.260397 0.034895 -2.882930 3.243228 0.288220 0.121980 0.031060 -3.718661 -0.825399 -8.087990 6.695622 1.044446 25.239717 -7.722992 3.971522 11.384500 4.906635 3.426568 -9.551275 2.718119 -7.318768 43.241714 8.361130 -9.595660 -10.344320 -15.345521 -18.580261 3.237921 -29.184733 -25.784100 -2.184353 75.638440 -82.710585 -63.635379 -3.025991 0.162536 0.200880 -0.011750 0.004610 0.151280 5.522809 17.813754 5.560366 4.192495 17.874929 -0.334196 77.868849 74.516780 51.845256 2.781922 -1.032663 -0.068080 0.244480 -0.049850 -0.008380 
-0.529460 17.015960 -1.204720 -5.795465 31.132849 -12.211384 -15.416497 12.911013 3.790145 -6.393923 -6.941131 -21.731312 10.479754 3.455403 52.634188 0.597776 8.199357 1.639377 0.378260 0.356520 0.139170 17.981304 -10.966397 2.669714 -12.800762 1.214189 -27.206062 5.191507 -4.986613 18.595291 0.029542 -2.844101 3.251270 0.295760 0.109190 0.037220 -3.674482 -0.818470 -8.064426 6.233637 0.806830 25.957481 -8.752666 4.168645 12.304821 5.592263 4.545645 -10.233746 4.877766 -8.438815 41.889321 8.342950 -9.051630 -11.199460 -15.377579 -18.771924 5.125074 -27.662517 -26.641460 3.600657 137.487950 -77.008583 -135.588553 -3.674543 3.246408 0.212900 -0.010380 0.020230 0.144160 4.169628 17.363530 5.168591 1.035360 15.138720 -1.764728 64.053158 72.869047 42.102547 2.427484 -1.580788 -0.067300 0.242330 -0.054410 -0.020110 
-0.548420 17.043430 -1.246440 -6.497411 31.166827 -11.715079 -15.436652 12.957258 3.747353 -5.467217 -6.739184 -22.664118 9.675384 3.963531 51.352460 0.531525 7.987942 1.701563 0.376370 0.358890 0.141730 17.951220 -10.950603 2.678137 -13.514913 1.237479 -26.931115 5.209042 -4.853854 17.706168 0.033685 -2.805562 3.267605 0.296110 0.113260 0.044460 -3.586970 -0.901363 -8.033487 5.782908 0.756504 26.429927 -9.040370 4.490781 12.175969 6.158098 5.216527 -10.269592 6.230754 -8.971148 40.478902 8.084250 -8.525620 -11.319700 -15.210232 -19.431707 5.220645 -28.886113 -26.991043 4.113142 168.015082 -73.041790 -170.292675 -3.535619 3.333831 0.207680 0.001940 0.021000 0.145450 2.855769 17.436948 5.137312 -2.324696 12.332326 -2.975752 50.833098 70.683238 32.836234 2.246486 -1.816236 -0.066860 0.238220 -0.056980 -0.022820 
-0.566700 17.052570 -1.276220 -6.764653 29.582903 -10.681666 -15.421060 12.943201 3.721191 -3.689987 -6.487566 -24.326580 7.333072 5.626720 50.998393 0.506842 8.053497 1.667158 0.375100 0.361980 0.134240 17.966004 -10.922612 2.701191 -13.791433 1.469965 -27.311222 4.626072 -4.540242 17.040231 0.048964 -2.697771 3.308748 0.301780 0.122150 0.040250 -3.562567 -0.907859 -8.031800 5.336761 0.587335 26.410211 -10.006513 4.695202 11.886289 6.573625 4.705608 -10.098834 5.514884 -8.104408 39.263107 8.126110 -7.846320 -11.582310 -15.168023 -19.099350 5.799388 -30.215798 -26.370455 5.768817 177.665156 -66.859728 176.531269 -3.528004 3.328384 0.202650 0.006330 0.013190 0.149690 1.942533 17.543500 4.180189 -6.194939 12.094626 -3.799626 37.949652 68.445732 24.364709 2.161496 -1.884942 -0.072590 0.242270 -0.056340 -0.021720 
-0.584020 17.055870 -1.303780 -7.046470 28.503537 -9.544075 -15.449558 12.926802 3.785318 -2.201669 -6.549613 -26.309849 5.511831 6.918526 50.962049 0.511661 8.188900 1.614240 0.380490 0.369100 0.139790 17.946880 -10.823510 2.667079 -14.440967 1.545354 -26.949363 4.413253 -4.312030 16.021223 0.058606 -2.637953 3.334534 0.306590 0.127040 0.046070 -3.409805 -1.114750 -8.036225 4.299692 0.489213 26.086473 -10.040792 4.863268 11.737558 6.947542 4.163568 -10.006169 4.651589 -7.498404 37.995345 7.297400 -7.286340 -11.456120 -14.677062 -18.833806 6.134107 -31.873520 -26.623806 8.017425 -175.577511 -62.211654 165.274589 -3.535356 3.349932 0.184920 0.018710 0.006370 0.155020 0.710238 17.799903 3.581740 -10.103441 11.207906 -4.576548 24.540282 66.329939 16.071764 2.111080 -1.899406 -0.067540 0.236590 -0.063770 -0.019550 
-0.612010 17.068550 -1.335660 -7.018991 27.842358 -7.859646 -15.495439 12.856492 3.907209 -0.795561 -6.735733 -28.515949 3.314219 8.337863 50.626022 0.517142 8.329823 1.562140 0.369710 0.362890 0.130570 17.920721 -10.714800 2.601582 -15.206159 1.549047 -26.594225 3.904457 -4.058463 15.120847 0.074437 -2.588751 3.358415 0.307460 0.142060 0.043240 -3.223926 -1.303696 -8.043392 2.696520 0.683462 25.262007 -9.976119 5.177202 11.507171 7.269517 3.986051 -10.003742 4.386183 -7.132333 37.251157 6.670430 -6.899320 -10.772290 -13.978398 -18.385790 6.074001 -34.096606 -27.215331 10.444709 -168.152020 -58.677630 151.546714 -3.553798 3.378857 0.163030 0.036490 -0.009050 0.158570 -0.602473 17.602667 3.468551 -12.702488 9.852981 -4.705519 15.679187 63.906869 10.758274 2.089031 -1.892349 -0.071750 0.237860 -0.063220 -0.015290 
-0.626550 17.085150 -1.352620 -7.017340 27.343612 -6.450964 -15.535804 12.843373 3.994961 0.254080 -6.751500 -29.821279 1.273255 9.293093 49.041797 0.472372 8.222903 1.590098 0.378310 0.382710 0.137760 17.887131 -10.708649 2.475341 -15.689436 1.430683 -25.747411 2.776533 -3.839388 15.100133 0.077465 -2.592802 3.364463 0.323480 0.151450 0.046540 -3.065207 -1.442643 -7.989678 1.314829 0.798711 24.005136 -9.926877 5.330167 11.484975 7.787149 3.736281 -9.745673 4.080094 -6.313978 36.992849 5.543570 -6.068360 -10.299130 -13.690338 -17.361406 5.728296 -37.034067 -27.411462 12.209684 -159.747982 -56.812412 135.782489 -3.595969 3.418372 0.139970 0.057440 -0.014710 0.165460 -1.820149 16.829972 3.166458 -14.428416 9.462621 -4.550749 8.110610 61.363074 6.590832 2.069909 -1.876260 -0.069060 0.242910 -0.070690 -0.012260 
-0.648030 17.104070 -1.374180 -7.001099 26.854799 -5.524069 -15.573074 12.895396 4.069418 1.367383 -6.696944 -30.438811 -0.985461 10.116317 46.943158 0.415622 8.063158 1.641486 0.376810 0.383560 0.141610 17.843611 -10.756264 2.305999 -15.906023 1.253261 -24.534009 1.251110 -3.650507 15.792327 0.073890 -2.631546 3.363269 0.328260 0.168850 0.048450 -2.912159 -1.623264 -7.911753 -0.015723 0.826541 23.271850 -9.943570 5.412364 11.535299 8.233490 3.483586 -9.543765 3.772594 -5.185304 36.881715 5.003640 -5.062550 -9.966060 -13.837566 -16.488466 5.394698 -39.139889 -27.271985 12.965737 -154.169433 -55.854934 125.360472 -3.642664 3.444236 0.133270 0.075440 -0.020340 0.170050 -2.485518 16.156748 3.024401 -16.409780 8.539525 -4.430633 1.325234 58.805773 3.210555 2.060590 -1.843392 -0.077030 0.255740 -0.069920 -0.013810 
-0.671450 17.123840 -1.406700 -7.169286 26.295802 -5.117257 -15.619713 12.997229 4.137101 2.386063 -6.648887 -30.673043 -2.879972 10.669627 45.090668 0.359357 7.919426 1.674616 0.384120 0.389580 0.147940 17.784835 -10.807090 2.118938 -15.886123 1.046731 -22.762567 -0.241721 -3.452526 16.469983 0.059880 -2.692172 3.346198 0.337360 0.163040 0.052260 -2.725266 -1.883770 -7.824318 -1.393612 0.899757 23.008186 -9.511079 5.535518 11.690946 8.564668 3.392531 -9.453571 3.665151 -4.470040 36.832075 4.878690 -4.381670 -9.947990 -14.091290 -16.074570 4.962918 -40.544821 -27.602467 13.442116 -149.404951 -55.160272 116.729852 -3.665704 3.481951 0.141780 0.076360 -0.017370 0.168610 -2.828855 15.873355 3.258305 -18.428330 7.125633 -4.246156 -5.233588 54.202884 0.393544 2.061119 -1.796931 -0.081680 0.250300 -0.070380 -0.022660 
-0.681260 17.146340 -1.436580 -7.290898 25.536192 -4.884670 -15.656003 13.122979 4.176343 2.911355 -6.563941 -30.517769 -3.925009 10.861241 43.784081 0.322303 7.785831 1.702754 0.378140 0.371540 0.151520 17.730855 -10.910622 1.933352 -15.501843 0.857777 -20.854501 -2.135608 -3.198060 17.660938 0.039285 -2.781467 3.316800 0.324490 0.148990 0.061450 -2.572860 -2.078932 -7.728956 -2.498546 1.142579 22.758327 -9.198646 5.897992 11.912111 8.818080 3.453885 -9.658268 3.755398 -4.043517 37.193284 5.225210 -4.042200 -9.852580 -14.327119 -15.988494 4.798511 -42.066228 -27.670852 13.511345 -145.479893 -55.092575 110.173285 -3.680910 3.502956 0.160280 0.066600 -0.009190 0.156160 -3.077697 15.879316 3.796819 -20.322912 5.410762 -4.054445 -11.616977 48.165991 -1.672984 2.081884 -1.736799 -0.081210 0.231560 -0.062140 -0.033390 
-0.679670 17.172100 -1.469780 -7.771092 24.698697 -4.912129 -15.688302 13.251563 4.217015 3.619038 -6.455275 -30.429567 -4.738777 11.026196 42.889689 0.315897 7.717963 1.729024 0.360730 0.350090 0.147700 17.682534 -11.014365 1.759338 -14.693553 0.732583 -18.786018 -3.991710 -2.946474 19.491767 0.018955 -2.949285 3.284055 0.308670 0.153770 0.053370 -2.438209 -2.259705 -7.643808 -3.084145 1.205684 22.681186 -9.008789 6.048826 12.168048 9.348774 3.454045 -10.023443 3.887555 -3.592410 36.898461 5.092040 -3.582660 -9.203840 -14.989403 -15.972817 4.788335 -43.530833 -26.864629 12.707427 -140.952102 -55.271397 102.976323 -3.716385 3.506847 0.155620 0.071730 -0.017510 0.153060 -3.459635 16.101230 4.517994 -22.045600 4.083183 -3.516315 -13.763301 40.959027 -1.784410 2.126636 -1.707264 -0.087300 0.229330 -0.061160 -0.036620 
-0.669730 17.202450 -1.493550 -7.918380 23.243272 -5.092065 -15.683442 13.383790 4.180366 3.664110 -6.235511 -29.554304 -5.018686 10.819807 41.737889 0.295865 7.466611 1.800024 0.384630 0.379880 0.182450 17.655938 -11.171488 1.651414 -14.224638 0.564905 -16.566294 -5.431491 -2.786660 21.118519 -0.050447 -3.139776 3.225229 0.302290 0.100880 0.051700 -2.402247 -2.311212 -7.575281 -3.209413 1.211936 22.795166 -9.843732 6.342374 12.601761 9.745407 3.151846 -10.535027 3.250677 -3.478567 37.549421 5.041130 -3.387200 -10.150470 -14.793381 -15.931076 4.700921 -44.415043 -26.494199 11.816821 -138.101570 -55.519900 98.491780 -3.688546 3.499299 0.185440 0.031740 0.029930 0.149330 -4.493532 16.412925 5.447255 -23.346496 2.634402 -2.965546 -14.828193 33.018158 -1.464682 2.198516 -1.676129 -0.064590 0.216090 -0.087370 -0.043030 
